<svg width="125" height="32" viewBox="0 0 125 32" fill="none" xmlns="http://www.w3.org/2000/svg">
<path d="M103.951 31.994V0.480469H124.171V5.26038H109.662V14.7144H122.754V19.4309H109.662V31.994H103.951Z" fill="url(#paint0_linear_19019_698)"/>
<path d="M10.7019 31.5135H2.7072V26.5644H10.4058C12.5913 26.5644 14.4173 26.1696 15.8837 25.38C17.3642 24.5763 18.471 23.3708 19.2042 21.7634C19.9515 20.156 20.3252 18.1467 20.3252 15.7356C20.3252 13.3245 19.9586 11.3223 19.2254 9.72902C18.4922 8.13571 17.3994 6.94426 15.9471 6.15466C14.4948 5.35096 12.6971 4.94911 10.5539 4.94911H2.538V0H10.8923C14.0225 0 16.7085 0.627451 18.9504 1.88235C21.2064 3.13725 22.9407 4.94206 24.1533 7.29676C25.3659 9.65146 25.9722 12.4644 25.9722 15.7356C25.9722 19.0068 25.3659 21.8268 24.1533 24.1956C22.9407 26.5503 21.1923 28.3622 18.9081 29.6312C16.638 30.8861 13.9026 31.5135 10.7019 31.5135ZM5.71051 0V31.5135H0V0H5.71051Z" fill="white"/>
<path d="M36.3146 32C34.8059 32 33.4523 31.7321 32.2538 31.1963C31.0553 30.6464 30.1106 29.8427 29.4197 28.7852C28.7288 27.7277 28.3833 26.4234 28.3833 24.8724C28.3833 23.547 28.6301 22.4472 29.1236 21.573C29.6171 20.6988 30.2868 20.0009 31.1329 19.4792C31.993 18.9575 32.9588 18.5627 34.0304 18.2948C35.102 18.0128 36.2089 17.8154 37.351 17.7026C38.7469 17.5475 39.8749 17.4135 40.735 17.3007C41.5951 17.1879 42.2155 17.0046 42.5962 16.7508C42.991 16.497 43.1884 16.1022 43.1884 15.5664V15.4607C43.1884 14.3186 42.85 13.4303 42.1732 12.7958C41.4964 12.1613 40.5094 11.844 39.2122 11.844C37.8445 11.844 36.7588 12.1401 35.9551 12.7323C35.1655 13.3245 34.6297 14.0225 34.3477 14.8262L29.1659 14.0859C29.5748 12.6477 30.2516 11.4492 31.1963 10.4904C32.141 9.51752 33.2902 8.79136 34.6438 8.31196C36.0115 7.81846 37.5202 7.57171 39.1699 7.57171C40.2979 7.57171 41.4259 7.70566 42.5539 7.97356C43.6819 8.22736 44.7182 8.66446 45.6629 9.28486C46.6076 9.90526 47.362 10.7372 47.926 11.7806C48.49 12.824 48.772 14.1282 48.772 15.6933V31.5135H43.421V28.2564H43.2518C42.9134 28.905 42.434 29.5184 41.8136 30.0965C41.2073 30.6605 40.4459 31.1187 39.5294 31.4712C38.627 31.8237 37.5554 32 36.3146 32ZM37.7317 27.8969C38.8597 27.8969 39.8326 27.6783 40.6504 27.2412C41.4682 26.79 42.1027 26.1978 42.5539 25.4646C43.0051 24.7173 43.2307 23.9066 43.2307 23.0324V20.2617C43.0474 20.4027 42.7513 20.5367 42.3424 20.6636C41.9335 20.7764 41.4682 20.8821 40.9465 20.9808C40.4248 21.0795 39.9101 21.1641 39.4025 21.2346C38.909 21.3051 38.479 21.3615 38.1124 21.4038C37.2805 21.5166 36.5332 21.707 35.8705 21.9749C35.2219 22.2287 34.7072 22.5812 34.3265 23.0324C33.9458 23.4836 33.7555 24.0687 33.7555 24.7878C33.7555 25.8171 34.1291 26.5926 34.8764 27.1143C35.6237 27.636 36.5755 27.8969 37.7317 27.8969Z" fill="white"/>
<path d="M64.6768 7.86781V12.1824H51.1196V7.86781H64.6768ZM54.4402 2.2419H60.0026V24.4071C60.0026 25.3377 60.2071 26.0286 60.616 26.4798C61.0249 26.9169 61.6735 27.1355 62.5618 27.1355C62.8015 27.1355 63.0694 27.1143 63.3655 27.072C63.6616 27.0297 63.9295 26.9804 64.1692 26.924L65.121 31.2809C64.5288 31.4642 63.9295 31.5981 63.3232 31.6827C62.7169 31.7814 62.1106 31.8308 61.5043 31.8308C59.3047 31.8308 57.5774 31.2527 56.3225 30.0965C55.0676 28.9262 54.4402 27.3329 54.4402 25.3166V2.2419Z" fill="white"/>
<path d="M74.5539 32C73.0452 32 71.6916 31.7321 70.4931 31.1963C69.2946 30.6464 68.3499 29.8427 67.659 28.7852C66.9681 27.7277 66.6226 26.4234 66.6226 24.8724C66.6226 23.547 66.8694 22.4472 67.3629 21.573C67.8564 20.6988 68.5261 20.0009 69.3721 19.4792C70.2322 18.9575 71.1981 18.5627 72.2697 18.2948C73.3413 18.0128 74.4481 17.8154 75.5902 17.7026C76.9861 17.5475 78.1141 17.4135 78.9742 17.3007C79.8343 17.1879 80.4547 17.0046 80.8354 16.7508C81.2302 16.497 81.4276 16.1022 81.4276 15.5664V15.4607C81.4276 14.3186 81.0892 13.4303 80.4124 12.7958C79.7356 12.1613 78.7486 11.844 77.4514 11.844C76.0837 11.844 74.998 12.1401 74.1943 12.7323C73.4047 13.3245 72.8689 14.0225 72.5869 14.8262L67.4052 14.0859C67.8141 12.6477 68.4909 11.4492 69.4356 10.4904C70.3803 9.51752 71.5294 8.79136 72.883 8.31196C74.2507 7.81846 75.7594 7.57171 77.4091 7.57171C78.5371 7.57171 79.6651 7.70566 80.7931 7.97356C81.9211 8.22736 82.9575 8.66446 83.9022 9.28486C84.8469 9.90526 85.6012 10.7372 86.1652 11.7806C86.7292 12.824 87.0112 14.1282 87.0112 15.6933V31.5135H81.6603V28.2564H81.4911C81.1527 28.905 80.6733 29.5184 80.0529 30.0965C79.4466 30.6605 78.6852 31.1187 77.7687 31.4712C76.8663 31.8237 75.7947 32 74.5539 32ZM75.9709 27.8969C77.0989 27.8969 78.0718 27.6783 78.8896 27.2412C79.7074 26.79 80.3419 26.1978 80.7931 25.4646C81.2443 24.7173 81.4699 23.9066 81.4699 23.0324V20.2617C81.2866 20.4027 80.9905 20.5367 80.5816 20.6636C80.1727 20.7764 79.7074 20.8821 79.1857 20.9808C78.664 21.0795 78.1494 21.1641 77.6418 21.2346C77.1483 21.3051 76.7182 21.3615 76.3516 21.4038C75.5197 21.5166 74.7724 21.707 74.1097 21.9749C73.4611 22.2287 72.9465 22.5812 72.5658 23.0324C72.1851 23.4836 71.9947 24.0687 71.9947 24.7878C71.9947 25.8171 72.3684 26.5926 73.1157 27.1143C73.863 27.636 74.8147 27.8969 75.9709 27.8969Z" fill="white"/>
<path d="M95.1963 31.8731C94.2375 31.8731 93.4268 31.5488 92.764 30.9002C92.1154 30.2375 91.7911 29.4338 91.7911 28.4891C91.7911 27.5444 92.1154 26.7477 92.764 26.0991C93.4268 25.4364 94.2375 25.1051 95.1963 25.1051C96.1551 25.1051 96.9588 25.4364 97.6074 26.0991C98.2701 26.7477 98.6015 27.5444 98.6015 28.4891C98.6015 29.4338 98.2701 30.2375 97.6074 30.9002C96.9588 31.5488 96.1551 31.8731 95.1963 31.8731Z" fill="white"/>
<defs>
<linearGradient id="paint0_linear_19019_698" x1="103.951" y1="0.480469" x2="126.39" y2="2.14891" gradientUnits="userSpaceOnUse">
<stop stop-color="#E8309E"/>
<stop offset="1" stop-color="#8630E8"/>
</linearGradient>
</defs>
</svg>
