<svg width="156" height="40" viewBox="0 0 156 40" fill="none" xmlns="http://www.w3.org/2000/svg">
<path d="M129.939 39.9935V0.601562H155.214V6.57645H137.078V18.394H153.442V24.2896H137.078V39.9935H129.939Z" fill="url(#paint0_linear_19019_699)"/>
<path d="M13.3774 39.3919H3.38401V33.2056H13.0073C15.7392 33.2056 18.0216 32.7121 19.8546 31.725C21.7052 30.7204 23.0888 29.2135 24.0053 27.2042C24.9394 25.195 25.4065 22.6834 25.4065 19.6695C25.4065 16.6557 24.9482 14.1529 24.0317 12.1613C23.1152 10.1696 21.7493 8.68033 19.9339 7.69332C18.1185 6.6887 15.8713 6.18638 13.1923 6.18638H3.1725V0H13.6153C17.5281 0 20.8857 0.784314 23.688 2.35294C26.508 3.92157 28.6759 6.17757 30.1917 9.12095C31.7074 12.0643 32.4653 15.5805 32.4653 19.6695C32.4653 23.7585 31.7074 27.2835 30.1917 30.2445C28.6759 33.1879 26.4904 35.4527 23.6352 37.039C20.7975 38.6076 17.3783 39.3919 13.3774 39.3919ZM7.13814 0V39.3919H0V0H7.13814Z" fill="#17212E"/>
<path d="M45.3933 40C43.5074 40 41.8154 39.6651 40.3172 38.9954C38.8191 38.308 37.6382 37.3034 36.7746 35.9815C35.911 34.6596 35.4792 33.0293 35.4792 31.0905C35.4792 29.4338 35.7876 28.059 36.4045 26.9663C37.0214 25.8735 37.8586 25.0011 38.9161 24.349C39.9912 23.6968 41.1985 23.2033 42.538 22.8685C43.8775 22.516 45.2611 22.2692 46.6887 22.1282C48.4336 21.9343 49.8436 21.7669 50.9187 21.6259C51.9938 21.4849 52.7693 21.2558 53.2452 20.9385C53.7387 20.6213 53.9855 20.1278 53.9855 19.458V19.3258C53.9855 17.8982 53.5625 16.7878 52.7165 15.9947C51.8705 15.2016 50.6367 14.805 49.0152 14.805C47.3056 14.805 45.9484 15.1751 44.9438 15.9154C43.9568 16.6557 43.2871 17.5281 42.9346 18.5327L36.4574 17.6074C36.9685 15.8096 37.8145 14.3115 38.9954 13.113C40.1763 11.8969 41.6127 10.9892 43.3047 10.39C45.0143 9.77308 46.9002 9.46464 48.9623 9.46464C50.3723 9.46464 51.7823 9.63208 53.1923 9.96695C54.6023 10.2842 55.8978 10.8306 57.0787 11.6061C58.2595 12.3816 59.2025 13.4215 59.9075 14.7257C60.6125 16.03 60.965 17.6603 60.965 19.6167V39.3919H54.2763V35.3206H54.0648C53.6418 36.1313 53.0425 36.898 52.267 37.6206C51.5091 38.3256 50.5574 38.8984 49.4118 39.3391C48.2838 39.7797 46.9443 40 45.3933 40ZM47.1646 34.8711C48.5746 34.8711 49.7907 34.5979 50.813 34.0516C51.8352 33.4876 52.6283 32.7473 53.1923 31.8308C53.7563 30.8967 54.0383 29.8832 54.0383 28.7905V25.3272C53.8092 25.5034 53.4391 25.6709 52.928 25.8295C52.4168 25.9705 51.8352 26.1027 51.1831 26.226C50.531 26.3494 49.8876 26.4552 49.2531 26.5433C48.6363 26.6314 48.0987 26.7019 47.6404 26.7548C46.6006 26.8958 45.6664 27.1337 44.8381 27.4686C44.0273 27.7859 43.384 28.2265 42.9081 28.7905C42.4323 29.3545 42.1943 30.0859 42.1943 30.9848C42.1943 32.2714 42.6614 33.2408 43.5955 33.8929C44.5296 34.5451 45.7193 34.8711 47.1646 34.8711Z" fill="#17212E"/>
<path d="M80.846 9.83477V15.228H63.8995V9.83477H80.846ZM68.0502 2.80238H75.0033V30.5089C75.0033 31.6722 75.2589 32.5358 75.77 33.0998C76.2811 33.6462 77.0919 33.9194 78.2022 33.9194C78.5019 33.9194 78.8367 33.8929 79.2069 33.8401C79.577 33.7872 79.9119 33.7255 80.2115 33.655L81.4012 39.1011C80.6609 39.3302 79.9119 39.4977 79.154 39.6034C78.3961 39.7268 77.6382 39.7885 76.8804 39.7885C74.1309 39.7885 71.9718 39.0659 70.4032 37.6206C68.8345 36.1577 68.0502 34.1661 68.0502 31.6457V2.80238Z" fill="#17212E"/>
<path d="M93.1923 40C91.3065 40 89.6145 39.6651 88.1163 38.9954C86.6182 38.308 85.4373 37.3034 84.5737 35.9815C83.7101 34.6596 83.2783 33.0293 83.2783 31.0905C83.2783 29.4338 83.5867 28.059 84.2036 26.9663C84.8204 25.8735 85.6576 25.0011 86.7151 24.349C87.7903 23.6968 88.9976 23.2033 90.3371 22.8685C91.6766 22.516 93.0601 22.2692 94.4878 22.1282C96.2327 21.9343 97.6427 21.7669 98.7178 21.6259C99.7929 21.4849 100.568 21.2558 101.044 20.9385C101.538 20.6213 101.785 20.1278 101.785 19.458V19.3258C101.785 17.8982 101.362 16.7878 100.516 15.9947C99.6695 15.2016 98.4358 14.805 96.8143 14.805C95.1047 14.805 93.7475 15.1751 92.7429 15.9154C91.7559 16.6557 91.0861 17.5281 90.7336 18.5327L84.2564 17.6074C84.7676 15.8096 85.6136 14.3115 86.7944 13.113C87.9753 11.8969 89.4118 10.9892 91.1038 10.39C92.8134 9.77308 94.6993 9.46464 96.7614 9.46464C98.1714 9.46464 99.5814 9.63208 100.991 9.96695C102.401 10.2842 103.697 10.8306 104.878 11.6061C106.059 12.3816 107.002 13.4215 107.707 14.7257C108.412 16.03 108.764 17.6603 108.764 19.6167V39.3919H102.075V35.3206H101.864C101.441 36.1313 100.842 36.898 100.066 37.6206C99.3082 38.3256 98.3565 38.8984 97.2108 39.3391C96.0828 39.7797 94.7433 40 93.1923 40ZM94.9636 34.8711C96.3736 34.8711 97.5898 34.5979 98.612 34.0516C99.6343 33.4876 100.427 32.7473 100.991 31.8308C101.555 30.8967 101.837 29.8832 101.837 28.7905V25.3272C101.608 25.5034 101.238 25.6709 100.727 25.8295C100.216 25.9705 99.6343 26.1027 98.9822 26.226C98.33 26.3494 97.6867 26.4552 97.0522 26.5433C96.4353 26.6314 95.8978 26.7019 95.4395 26.7548C94.3997 26.8958 93.4655 27.1337 92.6371 27.4686C91.8264 27.7859 91.1831 28.2265 90.7072 28.7905C90.2313 29.3545 89.9934 30.0859 89.9934 30.9848C89.9934 32.2714 90.4605 33.2408 91.3946 33.8929C92.3287 34.5451 93.5184 34.8711 94.9636 34.8711Z" fill="#17212E"/>
<path d="M118.995 39.8414C117.797 39.8414 116.783 39.436 115.955 38.6252C115.144 37.7969 114.739 36.7922 114.739 35.6114C114.739 34.4305 115.144 33.4347 115.955 32.6239C116.783 31.7955 117.797 31.3814 118.995 31.3814C120.194 31.3814 121.199 31.7955 122.009 32.6239C122.838 33.4347 123.252 34.4305 123.252 35.6114C123.252 36.7922 122.838 37.7969 122.009 38.6252C121.199 39.436 120.194 39.8414 118.995 39.8414Z" fill="#17212E"/>
<defs>
<linearGradient id="paint0_linear_19019_699" x1="129.939" y1="0.601563" x2="157.988" y2="2.68712" gradientUnits="userSpaceOnUse">
<stop stop-color="#E8309E"/>
<stop offset="1" stop-color="#8630E8"/>
</linearGradient>
</defs>
</svg>
