<svg width="80" height="80" viewBox="0 0 80 80" fill="none" xmlns="http://www.w3.org/2000/svg">
<path d="M74.8203 13.5781H5.17969C2.75438 13.5781 0.78125 15.5513 0.78125 17.9766V64.0106C0.78125 66.4359 2.75438 68.4091 5.17969 68.4091H74.8203C77.2456 68.4091 79.2188 66.4359 79.2188 64.0106V17.9766C79.2188 15.5513 77.2456 13.5781 74.8203 13.5781Z" fill="#B598F9"/>
<path d="M36.967 16.7266H5.18008C4.49352 16.7266 3.93164 17.2884 3.93164 17.975V64.0091C3.93164 64.6956 4.49352 65.2575 5.18008 65.2575H36.967C37.6535 65.2575 38.2154 64.6956 38.2154 64.0091V17.975C38.2154 17.2884 37.6535 16.7266 36.967 16.7266Z" fill="#C7D7E5"/>
<path d="M74.8205 16.7266H43.0336C42.347 16.7266 41.7852 17.2884 41.7852 17.975V64.0091C41.7852 64.6956 42.347 65.2575 43.0336 65.2575H74.8205C75.507 65.2575 76.0689 64.6956 76.0689 64.0091V17.975C76.0689 17.2884 75.507 16.7266 74.8205 16.7266Z" fill="#C7D7E5"/>
<path d="M32.0859 22.0859H8.85156C8.10813 22.0859 7.5 22.6941 7.5 23.4375V30.7344C7.5 31.4778 8.10813 32.0859 8.85156 32.0859H32.0863C32.8297 32.0859 33.4378 31.4778 33.4378 30.7344V23.4375C33.4375 22.6941 32.8294 22.0859 32.0859 22.0859Z" fill="#EDF4FC"/>
<path d="M32.0859 35.9922H8.85156C8.10813 35.9922 7.5 36.6003 7.5 37.3437V44.6409C7.5 45.3844 8.10813 45.9925 8.85156 45.9925H32.0863C32.8297 45.9925 33.4378 45.3844 33.4378 44.6409V37.3437C33.4375 36.6003 32.8294 35.9922 32.0859 35.9922Z" fill="#EDF4FC"/>
<path d="M32.0859 49.8984H8.85156C8.10813 49.8984 7.5 50.5066 7.5 51.25V58.5472C7.5 59.2906 8.10813 59.8987 8.85156 59.8987H32.0863C32.8297 59.8987 33.4378 59.2906 33.4378 58.5472V51.25C33.4375 50.5066 32.8294 49.8984 32.0859 49.8984Z" fill="#EDF4FC"/>
<path d="M71.1488 22.0859H47.9141C47.1706 22.0859 46.5625 22.6941 46.5625 23.4375V30.7344C46.5625 31.4778 47.1706 32.0859 47.9141 32.0859H71.1488C71.8922 32.0859 72.5003 31.4778 72.5003 30.7344V23.4375C72.5003 22.6941 71.8922 22.0859 71.1488 22.0859Z" fill="#EDF4FC"/>
<path d="M71.1488 35.9922H47.9141C47.1706 35.9922 46.5625 36.6003 46.5625 37.3437V44.6409C46.5625 45.3844 47.1706 45.9925 47.9141 45.9925H71.1488C71.8922 45.9925 72.5003 45.3844 72.5003 44.6409V37.3437C72.5003 36.6003 71.8922 35.9922 71.1488 35.9922Z" fill="#EDF4FC"/>
<path d="M71.1488 49.8984H47.9141C47.1706 49.8984 46.5625 50.5066 46.5625 51.25V58.5472C46.5625 59.2906 47.1706 59.8987 47.9141 59.8987H71.1488C71.8922 59.8987 72.5003 59.2906 72.5003 58.5472V51.25C72.5003 50.5066 71.8922 49.8984 71.1488 49.8984Z" fill="#EDF4FC"/>
<path d="M32.0859 22.0859H24.375V32.0859H32.0859C32.8294 32.0859 33.4375 31.4778 33.4375 30.7344V23.4375C33.4375 22.6941 32.8294 22.0859 32.0859 22.0859Z" fill="#70E9F9"/>
<path d="M32.0859 35.9922H24.375V45.9922H32.0859C32.8294 45.9922 33.4375 45.3841 33.4375 44.6406V37.3437C33.4375 36.6003 32.8294 35.9922 32.0859 35.9922Z" fill="#964CF5"/>
<path d="M32.0859 49.8984H24.375V59.8984H32.0859C32.8294 59.8984 33.4375 59.2903 33.4375 58.5469V51.25C33.4375 50.5066 32.8294 49.8984 32.0859 49.8984Z" fill="#8FF9EC"/>
<path d="M71.1484 22.0859H63.4375V32.0859H71.1484C71.8919 32.0859 72.5 31.4778 72.5 30.7344V23.4375C72.5 22.6941 71.8919 22.0859 71.1484 22.0859Z" fill="#996DE2"/>
<path d="M71.1484 35.9922H63.4375V45.9922H71.1484C71.8919 45.9922 72.5 45.3841 72.5 44.6406V37.3437C72.5 36.6003 71.8919 35.9922 71.1484 35.9922Z" fill="#6CADEF"/>
<path d="M71.1484 49.8984H63.4375V59.8984H71.1484C71.8919 59.8984 72.5 59.2903 72.5 58.5469V51.25C72.5 50.5066 71.8919 49.8984 71.1484 49.8984Z" fill="#65FCF3"/>
<path d="M14.3438 8.86719C13.375 8.67969 12.5938 7.92969 12.4062 6.96094C12.4062 6.92969 12.3125 6.92969 12.3125 6.96094C12.125 7.92969 11.3438 8.67969 10.375 8.86719C10.3438 8.86719 10.3438 8.92969 10.375 8.96094C11.3438 9.14844 12.125 9.89844 12.3125 10.8672C12.3125 10.8984 12.4062 10.8984 12.4062 10.8672C12.5938 9.89844 13.375 9.14844 14.3438 8.96094C14.375 8.92969 14.375 8.86719 14.3438 8.86719Z" fill="#B165FC"/>
<path d="M26.8746 72.7109H26.1246V71.9922C26.1246 71.4297 25.6871 70.9922 25.1246 70.9922C24.5934 70.9922 24.1246 71.4297 24.1246 71.9609V72.7109H23.4059C22.8434 72.7109 22.4059 73.1484 22.4059 73.7109C22.3746 74.2422 22.8121 74.7109 23.4059 74.7109H24.1246V75.4297C24.1246 75.9922 24.5621 76.4297 25.1246 76.4297C25.6559 76.4297 26.1246 75.9922 26.1246 75.4609V74.7109H26.8434C27.4059 74.7109 27.8434 74.2734 27.8434 73.7109C27.8434 73.1797 27.4059 72.7109 26.8746 72.7109Z" fill="#70E9F9"/>
<path d="M35.0938 75.8359C34.5069 75.8359 34.0312 76.3116 34.0312 76.8984C34.0312 77.485 34.5069 77.9609 35.0938 77.9609C35.6806 77.9609 36.1562 77.4853 36.1562 76.8984C36.1562 76.3116 35.6806 75.8359 35.0938 75.8359Z" fill="#964CF5"/>
<path d="M54.7813 8.80469C54.1944 8.80469 53.7188 9.28031 53.7188 9.86719C53.7188 10.4538 54.1944 10.9297 54.7813 10.9297C55.3681 10.9297 55.8438 10.4541 55.8438 9.86719C55.8438 9.28031 55.3681 8.80469 54.7813 8.80469Z" fill="#4797D1"/>
<path d="M45.2812 4.80469C43.875 4.55469 42.7813 3.46094 42.5 2.08594C42.5 2.02344 42.375 2.02344 42.375 2.08594C42.0938 3.46094 41 4.55469 39.5938 4.80469C39.5313 4.80469 39.5313 4.89844 39.5938 4.92969C41 5.17969 42.0938 6.27344 42.375 7.64844C42.375 7.71094 42.5 7.71094 42.5 7.64844C42.7813 6.27344 43.875 5.17969 45.2812 4.92969C45.3437 4.89844 45.3437 4.80469 45.2812 4.80469Z" fill="#964CF5"/>
<path d="M74.8203 12.7969H5.17969C2.32375 12.7969 0 15.1206 0 17.9766V64.0106C0 66.8669 2.32375 69.1903 5.17969 69.1903H74.8203C77.6763 69.1903 80 66.8666 80 64.0106V17.9766C80 15.1206 77.6763 12.7969 74.8203 12.7969ZM78.4375 64.0103C78.4375 66.005 76.815 67.6275 74.8203 67.6275H5.17969C3.18531 67.6275 1.5625 66.005 1.5625 64.0103V17.9766C1.5625 15.9822 3.185 14.3597 5.17969 14.3597H74.8203C76.8147 14.3597 78.4375 15.9822 78.4375 17.9766V64.0103Z" fill="#212643"/>
<path d="M43.3053 20.9141H36.6953C36.2638 20.9141 35.9141 21.2637 35.9141 21.6953C35.9141 22.1269 36.2638 22.4766 36.6953 22.4766H43.3053C43.7369 22.4766 44.0866 22.1269 44.0866 21.6953C44.0866 21.2637 43.7369 20.9141 43.3053 20.9141Z" fill="#212643"/>
<path d="M43.3053 25.2031H36.6953C36.2638 25.2031 35.9141 25.5528 35.9141 25.9844C35.9141 26.4159 36.2638 26.7656 36.6953 26.7656H43.3053C43.7369 26.7656 44.0866 26.4159 44.0866 25.9844C44.0866 25.5528 43.7369 25.2031 43.3053 25.2031Z" fill="#212643"/>
<path d="M43.3053 29.4922H36.6953C36.2638 29.4922 35.9141 29.8419 35.9141 30.2734C35.9141 30.705 36.2638 31.0547 36.6953 31.0547H43.3053C43.7369 31.0547 44.0866 30.705 44.0866 30.2734C44.0866 29.8419 43.7369 29.4922 43.3053 29.4922Z" fill="#212643"/>
<path d="M43.3053 33.7812H36.6953C36.2638 33.7812 35.9141 34.1309 35.9141 34.5625C35.9141 34.9941 36.2638 35.3438 36.6953 35.3438H43.3053C43.7369 35.3438 44.0866 34.9941 44.0866 34.5625C44.0866 34.1309 43.7369 33.7812 43.3053 33.7812Z" fill="#212643"/>
<path d="M43.3053 38.0664H36.6953C36.2638 38.0664 35.9141 38.4161 35.9141 38.8477C35.9141 39.2792 36.2638 39.6289 36.6953 39.6289H43.3053C43.7369 39.6289 44.0866 39.2792 44.0866 38.8477C44.0866 38.4161 43.7369 38.0664 43.3053 38.0664Z" fill="#212643"/>
<path d="M43.3053 42.3555H36.6953C36.2638 42.3555 35.9141 42.7052 35.9141 43.1367C35.9141 43.5683 36.2638 43.918 36.6953 43.918H43.3053C43.7369 43.918 44.0866 43.5683 44.0866 43.1367C44.0866 42.7052 43.7369 42.3555 43.3053 42.3555Z" fill="#212643"/>
<path d="M43.3053 46.6445H36.6953C36.2638 46.6445 35.9141 46.9942 35.9141 47.4258C35.9141 47.8573 36.2638 48.207 36.6953 48.207H43.3053C43.7369 48.207 44.0866 47.8573 44.0866 47.4258C44.0866 46.9942 43.7369 46.6445 43.3053 46.6445Z" fill="#212643"/>
<path d="M43.3053 50.9297H36.6953C36.2638 50.9297 35.9141 51.2794 35.9141 51.7109C35.9141 52.1425 36.2638 52.4922 36.6953 52.4922H43.3053C43.7369 52.4922 44.0866 52.1425 44.0866 51.7109C44.0866 51.2794 43.7369 50.9297 43.3053 50.9297Z" fill="#212643"/>
<path d="M43.3053 55.2188H36.6953C36.2638 55.2188 35.9141 55.5684 35.9141 56C35.9141 56.4316 36.2638 56.7812 36.6953 56.7812H43.3053C43.7369 56.7812 44.0866 56.4316 44.0866 56C44.0866 55.5684 43.7369 55.2188 43.3053 55.2188Z" fill="#212643"/>
<path d="M43.3053 59.5078H36.6953C36.2638 59.5078 35.9141 59.8575 35.9141 60.2891C35.9141 60.7206 36.2638 61.0703 36.6953 61.0703H43.3053C43.7369 61.0703 44.0866 60.7206 44.0866 60.2891C44.0866 59.8575 43.7369 59.5078 43.3053 59.5078Z" fill="#212643"/>
<path d="M30.0308 26.3086H27.8711C27.4395 26.3086 27.0898 26.6583 27.0898 27.0898C27.0898 27.5214 27.4395 27.8711 27.8711 27.8711H30.0308C30.4623 27.8711 30.812 27.5214 30.812 27.0898C30.812 26.6583 30.462 26.3086 30.0308 26.3086Z" fill="#212643"/>
<path d="M19.3491 24.6906L11.8919 24.6797H11.8906C11.4597 24.6797 11.11 25.0288 11.1094 25.4597C11.1088 25.8913 11.4581 26.2416 11.8894 26.2422L19.3466 26.2531H19.3478C19.7788 26.2531 20.1284 25.9041 20.1291 25.4731C20.1297 25.0416 19.7803 24.6912 19.3491 24.6906Z" fill="#212643"/>
<path d="M19.3478 27.9297H11.8906C11.4591 27.9297 11.1094 28.2794 11.1094 28.7109C11.1094 29.1425 11.4591 29.4922 11.8906 29.4922H19.3478C19.7794 29.4922 20.1291 29.1425 20.1291 28.7109C20.1291 28.2794 19.7794 27.9297 19.3478 27.9297Z" fill="#212643"/>
<path d="M30.0308 40.2148H27.8711C27.4395 40.2148 27.0898 40.5645 27.0898 40.9961C27.0898 41.4277 27.4395 41.7773 27.8711 41.7773H30.0308C30.4623 41.7773 30.812 41.4277 30.812 40.9961C30.812 40.5645 30.462 40.2148 30.0308 40.2148Z" fill="#212643"/>
<path d="M19.3491 38.5969L11.8919 38.5859H11.8906C11.4597 38.5859 11.11 38.935 11.1094 39.3659C11.1088 39.7975 11.4581 40.1478 11.8894 40.1484L19.3466 40.1594H19.3478C19.7788 40.1594 20.1284 39.8103 20.1291 39.3794C20.1297 38.9478 19.7803 38.5975 19.3491 38.5969Z" fill="#212643"/>
<path d="M19.3478 41.8359H11.8906C11.4591 41.8359 11.1094 42.1856 11.1094 42.6172C11.1094 43.0488 11.4591 43.3984 11.8906 43.3984H19.3478C19.7794 43.3984 20.1291 43.0488 20.1291 42.6172C20.1291 42.1856 19.7794 41.8359 19.3478 41.8359Z" fill="#212643"/>
<path d="M30.0308 54.1211H27.8711C27.4395 54.1211 27.0898 54.4708 27.0898 54.9023C27.0898 55.3339 27.4395 55.6836 27.8711 55.6836H30.0308C30.4623 55.6836 30.812 55.3339 30.812 54.9023C30.812 54.4708 30.462 54.1211 30.0308 54.1211Z" fill="#212643"/>
<path d="M19.3491 52.5031L11.8919 52.4922H11.8906C11.4597 52.4922 11.11 52.8413 11.1094 53.2722C11.1088 53.7038 11.4581 54.0541 11.8894 54.0547L19.3466 54.0656H19.3478C19.7788 54.0656 20.1284 53.7166 20.1291 53.2856C20.1297 52.8541 19.7803 52.5038 19.3491 52.5031Z" fill="#212643"/>
<path d="M19.3478 55.7422H11.8906C11.4591 55.7422 11.1094 56.0919 11.1094 56.5234C11.1094 56.955 11.4591 57.3047 11.8906 57.3047H19.3478C19.7794 57.3047 20.1291 56.955 20.1291 56.5234C20.1291 56.0919 19.7794 55.7422 19.3478 55.7422Z" fill="#212643"/>
<path d="M69.0933 26.3086H66.9336C66.502 26.3086 66.1523 26.6583 66.1523 27.0898C66.1523 27.5214 66.502 27.8711 66.9336 27.8711H69.0933C69.5248 27.8711 69.8745 27.5214 69.8745 27.0898C69.8745 26.6583 69.5245 26.3086 69.0933 26.3086Z" fill="#212643"/>
<path d="M58.4116 24.6906L50.9544 24.6797H50.9531C50.5222 24.6797 50.1725 25.0288 50.1719 25.4597C50.1713 25.8913 50.5206 26.2416 50.9519 26.2422L58.4091 26.2531H58.4103C58.8413 26.2531 59.1909 25.9041 59.1916 25.4731C59.1922 25.0416 58.8428 24.6912 58.4116 24.6906Z" fill="#212643"/>
<path d="M58.4103 27.9297H50.9531C50.5216 27.9297 50.1719 28.2794 50.1719 28.7109C50.1719 29.1425 50.5216 29.4922 50.9531 29.4922H58.4103C58.8419 29.4922 59.1916 29.1425 59.1916 28.7109C59.1916 28.2794 58.8419 27.9297 58.4103 27.9297Z" fill="#212643"/>
<path d="M69.0933 40.2148H66.9336C66.502 40.2148 66.1523 40.5645 66.1523 40.9961C66.1523 41.4277 66.502 41.7773 66.9336 41.7773H69.0933C69.5248 41.7773 69.8745 41.4277 69.8745 40.9961C69.8745 40.5645 69.5245 40.2148 69.0933 40.2148Z" fill="#212643"/>
<path d="M58.4116 38.5969L50.9544 38.5859H50.9531C50.5222 38.5859 50.1725 38.935 50.1719 39.3659C50.1713 39.7975 50.5206 40.1478 50.9519 40.1484L58.4091 40.1594H58.4103C58.8413 40.1594 59.1909 39.8103 59.1916 39.3794C59.1922 38.9478 58.8428 38.5975 58.4116 38.5969Z" fill="#212643"/>
<path d="M58.4103 41.8359H50.9531C50.5216 41.8359 50.1719 42.1856 50.1719 42.6172C50.1719 43.0488 50.5216 43.3984 50.9531 43.3984H58.4103C58.8419 43.3984 59.1916 43.0488 59.1916 42.6172C59.1916 42.1856 58.8419 41.8359 58.4103 41.8359Z" fill="#212643"/>
<path d="M69.0933 54.1211H66.9336C66.502 54.1211 66.1523 54.4708 66.1523 54.9023C66.1523 55.3339 66.502 55.6836 66.9336 55.6836H69.0933C69.5248 55.6836 69.8745 55.3339 69.8745 54.9023C69.8745 54.4708 69.5245 54.1211 69.0933 54.1211Z" fill="#212643"/>
<path d="M58.4116 52.5031L50.9544 52.4922H50.9531C50.5222 52.4922 50.1725 52.8413 50.1719 53.2722C50.1713 53.7038 50.5206 54.0541 50.9519 54.0547L58.4091 54.0656H58.4103C58.8413 54.0656 59.1909 53.7166 59.1916 53.2856C59.1922 52.8541 58.8428 52.5038 58.4116 52.5031Z" fill="#212643"/>
<path d="M58.4103 55.7422H50.9531C50.5216 55.7422 50.1719 56.0919 50.1719 56.5234C50.1719 56.955 50.5216 57.3047 50.9531 57.3047H58.4103C58.8419 57.3047 59.1916 56.955 59.1916 56.5234C59.1916 56.0919 58.8419 55.7422 58.4103 55.7422Z" fill="#212643"/>
<path d="M36.967 15.9453H5.18008C4.06102 15.9453 3.15039 16.8556 3.15039 17.9747V64.0087C3.15039 65.1278 4.06102 66.0384 5.18008 66.0384H36.967C38.086 66.0384 38.9966 65.1278 38.9966 64.0087V17.975C38.9966 16.8556 38.0863 15.9453 36.967 15.9453ZM37.4341 64.0087C37.4341 64.2622 37.2201 64.4759 36.967 64.4759H5.18008C4.92695 64.4759 4.71289 64.2619 4.71289 64.0087V17.975C4.71289 17.7219 4.92695 17.5081 5.18008 17.5081H36.967C37.2201 17.5081 37.4341 17.7222 37.4341 17.975V64.0087Z" fill="#212643"/>
<path d="M74.8205 15.9453H43.0336C41.9145 15.9453 41.0039 16.8556 41.0039 17.9747V64.0087C41.0039 65.1278 41.9145 66.0384 43.0336 66.0384H74.8205C75.9395 66.0384 76.8502 65.1278 76.8502 64.0087V17.975C76.8498 16.8556 75.9395 15.9453 74.8205 15.9453ZM75.2873 64.0087C75.2873 64.2622 75.0733 64.4759 74.8202 64.4759H43.0336C42.7805 64.4759 42.5664 64.2619 42.5664 64.0087V17.975C42.5664 17.7219 42.7805 17.5081 43.0336 17.5081H74.8205C75.0736 17.5081 75.2877 17.7222 75.2877 17.975L75.2873 64.0087Z" fill="#212643"/>
<path d="M32.0859 21.3047H8.85156C7.67563 21.3047 6.71875 22.2616 6.71875 23.4375V30.7347C6.71875 31.9106 7.67563 32.8672 8.85156 32.8672H32.0863C33.2622 32.8672 34.2191 31.9103 34.2191 30.7347V23.4375C34.2188 22.2612 33.2619 21.3047 32.0859 21.3047ZM32.6562 30.7347C32.6562 31.0437 32.3953 31.3047 32.0859 31.3047H8.85156C8.5425 31.3047 8.28125 31.0437 8.28125 30.7347V23.4375C8.28125 23.1228 8.53688 22.8672 8.85156 22.8672H32.0863C32.4006 22.8672 32.6566 23.1228 32.6566 23.4375L32.6562 30.7347Z" fill="#212643"/>
<path d="M32.0859 35.2109H8.85156C7.67563 35.2109 6.71875 36.1678 6.71875 37.3437V44.6409C6.71875 45.8169 7.67563 46.7734 8.85156 46.7734H32.0863C33.2622 46.7734 34.2191 45.8166 34.2191 44.6409V37.3437C34.2188 36.1675 33.2619 35.2109 32.0859 35.2109ZM32.6562 44.6409C32.6562 44.95 32.3953 45.2109 32.0859 45.2109H8.85156C8.5425 45.2109 8.28125 44.95 8.28125 44.6409V37.3437C8.28125 37.0291 8.53688 36.7734 8.85156 36.7734H32.0863C32.4006 36.7734 32.6566 37.0291 32.6566 37.3437L32.6562 44.6409Z" fill="#212643"/>
<path d="M32.0859 49.1172H8.85156C7.67563 49.1172 6.71875 50.0741 6.71875 51.25V58.5472C6.71875 59.7231 7.67563 60.6797 8.85156 60.6797H32.0863C33.2622 60.6797 34.2191 59.7228 34.2191 58.5472V51.25C34.2188 50.0737 33.2619 49.1172 32.0859 49.1172ZM32.6562 58.5472C32.6562 58.8562 32.3953 59.1172 32.0859 59.1172H8.85156C8.5425 59.1172 8.28125 58.8562 8.28125 58.5472V51.25C8.28125 50.9353 8.53688 50.6797 8.85156 50.6797H32.0863C32.4006 50.6797 32.6566 50.9353 32.6566 51.25L32.6562 58.5472Z" fill="#212643"/>
<path d="M71.1488 21.3047H47.9141C46.7381 21.3047 45.7812 22.2616 45.7812 23.4375V30.7347C45.7812 31.9106 46.7381 32.8672 47.9141 32.8672H71.1488C72.3247 32.8672 73.2816 31.9103 73.2816 30.7347V23.4375C73.2816 22.2612 72.3247 21.3047 71.1488 21.3047ZM71.7191 30.7347C71.7191 31.0437 71.4581 31.3047 71.1488 31.3047H47.9141C47.605 31.3047 47.3438 31.0437 47.3438 30.7347V23.4375C47.3438 23.1228 47.5994 22.8672 47.9141 22.8672H71.1488C71.4631 22.8672 71.7191 23.1228 71.7191 23.4375V30.7347Z" fill="#212643"/>
<path d="M71.1488 35.2109H47.9141C46.7381 35.2109 45.7812 36.1678 45.7812 37.3437V44.6409C45.7812 45.8169 46.7381 46.7734 47.9141 46.7734H71.1488C72.3247 46.7734 73.2816 45.8166 73.2816 44.6409V37.3437C73.2816 36.1675 72.3247 35.2109 71.1488 35.2109ZM71.7191 44.6409C71.7191 44.95 71.4581 45.2109 71.1488 45.2109H47.9141C47.605 45.2109 47.3438 44.95 47.3438 44.6409V37.3437C47.3438 37.0291 47.5994 36.7734 47.9141 36.7734H71.1488C71.4631 36.7734 71.7191 37.0291 71.7191 37.3437V44.6409Z" fill="#212643"/>
<path d="M71.1488 49.1172H47.9141C46.7381 49.1172 45.7812 50.0741 45.7812 51.25V58.5472C45.7812 59.7231 46.7381 60.6797 47.9141 60.6797H71.1488C72.3247 60.6797 73.2816 59.7228 73.2816 58.5472V51.25C73.2816 50.0737 72.3247 49.1172 71.1488 49.1172ZM71.7191 58.5472C71.7191 58.8562 71.4581 59.1172 71.1488 59.1172H47.9141C47.605 59.1172 47.3438 58.8562 47.3438 58.5472V51.25C47.3438 50.9353 47.5994 50.6797 47.9141 50.6797H71.1488C71.4631 50.6797 71.7191 50.9353 71.7191 51.25V58.5472Z" fill="#212643"/>
<path d="M24.375 21.5898C23.9434 21.5898 23.5938 21.9395 23.5938 22.3711V31.668C23.5938 32.0995 23.9434 32.4492 24.375 32.4492C24.8066 32.4492 25.1562 32.0995 25.1562 31.668V22.3711C25.1562 21.9395 24.8066 21.5898 24.375 21.5898Z" fill="#212643"/>
<path d="M24.375 35.457C23.9434 35.457 23.5938 35.8067 23.5938 36.2383V45.6655C23.5938 46.097 23.9434 46.4467 24.375 46.4467C24.8066 46.4467 25.1562 46.097 25.1562 45.6655V36.2383C25.1562 35.8067 24.8066 35.457 24.375 35.457Z" fill="#212643"/>
<path d="M24.375 49.3555C23.9434 49.3555 23.5938 49.7052 23.5938 50.1367V59.5833C23.5938 60.0148 23.9434 60.3645 24.375 60.3645C24.8066 60.3645 25.1562 60.0148 25.1562 59.5833V50.1367C25.1562 49.7055 24.8066 49.3555 24.375 49.3555Z" fill="#212643"/>
<path d="M63.4375 21.6016C63.0059 21.6016 62.6562 21.9512 62.6562 22.3828V31.7384C62.6562 32.17 63.0059 32.5197 63.4375 32.5197C63.8691 32.5197 64.2188 32.17 64.2188 31.7384V22.3828C64.2188 21.9512 63.8691 21.6016 63.4375 21.6016Z" fill="#212643"/>
<path d="M63.4375 35.5195C63.0059 35.5195 62.6562 35.8692 62.6562 36.3008V45.7277C62.6562 46.1592 63.0059 46.5089 63.4375 46.5089C63.8691 46.5089 64.2188 46.1592 64.2188 45.7277V36.3008C64.2188 35.8692 63.8691 35.5195 63.4375 35.5195Z" fill="#212643"/>
<path d="M63.4375 49.4648C63.0059 49.4648 62.6562 49.8145 62.6562 50.2461V59.6339C62.6562 60.0655 63.0059 60.4152 63.4375 60.4152C63.8691 60.4152 64.2188 60.0655 64.2188 59.6339V50.2461C64.2188 49.8145 63.8691 49.4648 63.4375 49.4648Z" fill="#212643"/>
</svg>
