<svg width="80" height="80" viewBox="0 0 80 80" fill="none" xmlns="http://www.w3.org/2000/svg">
<path d="M47.6753 38.1553C51.349 38.1553 54.3272 35.1772 54.3272 31.5034C54.3272 27.8297 51.349 24.8516 47.6753 24.8516C44.0016 24.8516 41.0234 27.8297 41.0234 31.5034C41.0234 35.1772 44.0016 38.1553 47.6753 38.1553Z" fill="#70E9F9"/>
<path d="M65.3842 53.5603C69.3243 52.6299 71.7641 48.6817 70.8338 44.7416C69.9034 40.8015 65.9551 38.3616 62.015 39.292C58.0749 40.2224 55.6351 44.1706 56.5654 48.1107C57.4958 52.0508 61.4441 54.4907 65.3842 53.5603Z" fill="#B598F9"/>
<path d="M67.7474 25.3191C72.2603 25.3191 75.9187 21.6607 75.9187 17.1478C75.9187 12.635 72.2603 8.97656 67.7474 8.97656C63.2346 8.97656 59.5762 12.635 59.5762 17.1478C59.5762 21.6607 63.2346 25.3191 67.7474 25.3191Z" fill="#964CF5"/>
<path d="M53.2181 35.1797C52.6059 36.1009 51.7709 36.86 50.7891 37.3812L57.15 43.1422C57.6475 42.1541 58.3609 41.2941 59.23 40.6244L53.2181 35.1797Z" fill="#DAE6F1"/>
<path d="M60.2283 20.3516L52.1445 26.5866C52.9533 27.3225 53.5783 28.2528 53.947 29.3062L62.0883 23.0387C61.3011 22.2822 60.6636 21.3709 60.2283 20.3516Z" fill="#DAE6F1"/>
<path d="M43.9931 55.7701L30.6747 20.8158C30.2815 19.7836 29.1259 19.2658 28.0937 19.6589L26.304 20.3408C25.2718 20.7339 24.754 21.8895 25.1472 22.9217L38.4659 57.8761C38.859 58.9083 40.0147 59.4261 41.0469 59.0329L42.8365 58.3511C43.8687 57.9576 44.3865 56.8023 43.9931 55.7701Z" fill="#DAE6F1"/>
<path d="M25.4762 23.7852C25.0784 26.2727 23.3171 32.9061 15.6649 36.703C14.5696 37.2464 14.0459 38.5136 14.4812 39.6561L19.3693 52.4852C19.8046 53.6277 21.039 54.2248 22.2181 53.9017C30.4565 51.6439 36.1852 55.4236 38.1374 57.0155L25.4762 23.7852Z" fill="#B165FC"/>
<path d="M14.6975 40.2227L4.81188 43.9892C1.58282 45.2195 -0.0371776 48.8342 1.19282 52.063C2.42313 55.2917 6.03782 56.912 9.26688 55.6817L19.1525 51.9152L14.6975 40.2227Z" fill="#8FF9EC"/>
<path d="M21.5051 65.2695L13.6941 53.9961L9.26633 55.6833C8.24758 56.0714 7.19039 56.1745 6.18164 56.0342L15.4751 69.4477C16.6288 71.1127 18.9138 71.5273 20.5788 70.3736C22.2441 69.2195 22.6588 66.9345 21.5051 65.2695Z" fill="#DAE6F1"/>
<path d="M47.6742 32.3367C48.8987 32.3367 49.8914 31.3441 49.8914 30.1195C49.8914 28.895 48.8987 27.9023 47.6742 27.9023C46.4497 27.9023 45.457 28.895 45.457 30.1195C45.457 31.3441 46.4497 32.3367 47.6742 32.3367Z" fill="#F9D0B4"/>
<path d="M48.6452 32.8906H46.7048C44.8755 32.8906 43.3789 34.3872 43.3789 36.2166V36.5816C44.538 37.5634 46.037 38.1566 47.6748 38.1566C49.3127 38.1566 50.8117 37.5634 51.9708 36.5816V36.2166C51.9711 34.3872 50.4742 32.8906 48.6452 32.8906Z" fill="#964CF5"/>
<path d="M63.6993 47.3478C65.0488 47.3478 66.1427 46.2538 66.1427 44.9044C66.1427 43.5549 65.0488 42.4609 63.6993 42.4609C62.3498 42.4609 61.2559 43.5549 61.2559 44.9044C61.2559 46.2538 62.3498 47.3478 63.6993 47.3478Z" fill="#F9D0B4"/>
<path d="M64.7683 47.957H62.6302C60.6142 47.957 58.9648 49.6064 58.9648 51.6223V52.0245C60.2423 53.1067 61.8939 53.7605 63.6992 53.7605C65.5045 53.7605 67.1561 53.1067 68.4336 52.0245V51.6223C68.4336 49.6064 66.7842 47.957 64.7683 47.957Z" fill="#70E9F9"/>
<path d="M67.7472 18.1702C69.2515 18.1702 70.4709 16.9507 70.4709 15.4464C70.4709 13.9421 69.2515 12.7227 67.7472 12.7227C66.2429 12.7227 65.0234 13.9421 65.0234 15.4464C65.0234 16.9507 66.2429 18.1702 67.7472 18.1702Z" fill="#F9D0B4"/>
<path d="M68.9375 18.8516H66.5544C64.3072 18.8516 62.4688 20.69 62.4688 22.9372V23.3856C63.8925 24.5916 65.7338 25.3203 67.7459 25.3203C69.7581 25.3203 71.5994 24.5916 73.0231 23.3856V22.9372C73.0231 20.69 71.1847 18.8516 68.9375 18.8516Z" fill="#B165FC"/>
<path d="M56.2187 13.1875C55.25 13 54.4688 12.25 54.2812 11.2812C54.2812 11.25 54.1875 11.25 54.1875 11.2812C54 12.25 53.2188 13 52.25 13.1875C52.2188 13.1875 52.2188 13.25 52.25 13.2813C53.2188 13.4688 54 14.2188 54.1875 15.1875C54.1875 15.2188 54.2812 15.2188 54.2812 15.1875C54.4688 14.2188 55.25 13.4688 56.2187 13.2813C56.25 13.25 56.25 13.1875 56.2187 13.1875Z" fill="#4797D1"/>
<path d="M11.5621 28.5938H10.8121V27.875C10.8121 27.3125 10.3746 26.875 9.81212 26.875C9.28087 26.875 8.81212 27.3125 8.81212 27.8437V28.5938H8.09337C7.53087 28.5938 7.09337 29.0312 7.09337 29.5937C7.06212 30.125 7.49962 30.5938 8.09337 30.5938H8.81212V31.3125C8.81212 31.875 9.24962 32.3125 9.81212 32.3125C10.3434 32.3125 10.8121 31.875 10.8121 31.3438V30.5938H11.5309C12.0934 30.5938 12.5309 30.1562 12.5309 29.5937C12.5309 29.0625 12.0934 28.5938 11.5621 28.5938Z" fill="#70E9F9"/>
<path d="M1.0625 33.5938C0.475625 33.5938 0 34.0694 0 34.6563C0 35.2431 0.475625 35.7188 1.0625 35.7188C1.64938 35.7188 2.125 35.2431 2.125 34.6563C2.125 34.0694 1.64938 33.5938 1.0625 33.5938Z" fill="#964CF5"/>
<path d="M78.9375 43.75C78.3506 43.75 77.875 44.2256 77.875 44.8125C77.875 45.3994 78.3506 45.875 78.9375 45.875C79.5244 45.875 80 45.3994 80 44.8125C80 44.2256 79.5244 43.75 78.9375 43.75Z" fill="#B165FC"/>
<path d="M75.9062 36C74.5 35.75 73.4063 34.6562 73.125 33.2812C73.125 33.2188 73 33.2188 73 33.2812C72.7188 34.6562 71.625 35.75 70.2188 36C70.1563 36 70.1563 36.0937 70.2188 36.125C71.625 36.375 72.7188 37.4688 73 38.8438C73 38.9063 73.125 38.9063 73.125 38.8438C73.4063 37.4688 74.5 36.375 75.9062 36.125C75.9687 36.0937 75.9687 36 75.9062 36Z" fill="#964CF5"/>
<path d="M47.6756 24.0703C43.5769 24.0703 40.2422 27.4047 40.2422 31.5037C40.2422 35.6025 43.5769 38.9369 47.6756 38.9369C51.7741 38.9369 55.1087 35.6025 55.1087 31.5037C55.1087 27.405 51.7741 24.0703 47.6756 24.0703ZM47.6756 37.3744C44.4384 37.3744 41.8047 34.7409 41.8047 31.5037C41.8047 28.2666 44.4384 25.6328 47.6756 25.6328C50.9125 25.6328 53.5462 28.2666 53.5462 31.5037C53.5462 34.7409 50.9125 37.3744 47.6756 37.3744Z" fill="#212643"/>
<path d="M63.6998 38.3203C59.227 38.3203 55.5879 41.9594 55.5879 46.4322C55.5879 50.905 59.227 54.5441 63.6998 54.5441C68.1726 54.5441 71.8116 50.905 71.8116 46.4322C71.8116 41.9594 68.1726 38.3203 63.6998 38.3203ZM63.6998 52.9819C60.0882 52.9819 57.1504 50.0438 57.1504 46.4325C57.1504 42.8213 60.0882 39.8831 63.6998 39.8831C67.3113 39.8831 70.2491 42.8213 70.2491 46.4325C70.2491 50.0438 67.3113 52.9819 63.6998 52.9819Z" fill="#212643"/>
<path d="M67.7471 8.19531C62.8109 8.19531 58.7949 12.2112 58.7949 17.1475C58.7949 22.0837 62.8112 26.1 67.7471 26.1C72.683 26.1 76.6993 22.0837 76.6993 17.1475C76.6993 12.2112 72.6834 8.19531 67.7471 8.19531ZM67.7471 24.5378C63.6724 24.5378 60.3574 21.2228 60.3574 17.1478C60.3574 13.0731 63.6724 9.75812 67.7471 9.75812C71.8218 9.75812 75.1368 13.0731 75.1368 17.1478C75.1371 21.2225 71.8218 24.5378 67.7471 24.5378Z" fill="#212643"/>
<path d="M59.6663 39.9655L53.9188 34.7608C53.5991 34.4712 53.1051 34.4955 52.8154 34.8155C52.5257 35.1352 52.5504 35.6293 52.8704 35.919L58.6179 41.1237C58.7676 41.2593 58.9548 41.3258 59.142 41.3258C59.3551 41.3258 59.567 41.2393 59.7213 41.069C60.0107 40.7493 59.986 40.2552 59.6663 39.9655Z" fill="#212643"/>
<path d="M57.5629 42.4626L51.4445 36.921C51.1242 36.6313 50.6307 36.6557 50.341 36.9757C50.051 37.2954 50.0757 37.7894 50.3957 38.0791L56.5142 43.6207C56.6639 43.7563 56.8514 43.8229 57.0385 43.8229C57.2517 43.8229 57.4635 43.7363 57.6179 43.566C57.9076 43.2463 57.8829 42.7522 57.5629 42.4626Z" fill="#212643"/>
<path d="M62.5802 22.6641C62.3171 22.3222 61.8271 22.2584 61.4846 22.5216L53.6093 28.5844C53.2674 28.8475 53.2037 29.3381 53.4671 29.68C53.6209 29.88 53.8524 29.9847 54.0865 29.9847C54.2527 29.9847 54.4203 29.9319 54.5624 29.8225L62.4381 23.7597C62.7799 23.4966 62.8437 23.0059 62.5802 22.6641Z" fill="#212643"/>
<path d="M60.6959 19.9954C60.4324 19.6539 59.9418 19.5907 59.6002 19.8538L51.8805 25.8079C51.5387 26.0714 51.4752 26.562 51.739 26.9035C51.8927 27.1032 52.124 27.2076 52.358 27.2076C52.5246 27.2076 52.6924 27.1545 52.8343 27.0448L60.554 21.0907C60.8959 20.8276 60.9593 20.337 60.6959 19.9954Z" fill="#212643"/>
<path d="M44.7239 55.4919L31.4058 20.5372C30.8596 19.104 29.2502 18.3822 27.8167 18.9287L26.0271 19.6106C25.333 19.8753 24.7833 20.394 24.4792 21.0722C24.1752 21.7503 24.1536 22.5056 24.4183 23.2L37.7367 58.1544C38.1592 59.2628 39.2177 59.9453 40.3389 59.9453C40.6674 59.9453 41.0011 59.8865 41.3258 59.7631L43.1155 59.0812C43.8102 58.8169 44.3596 58.2978 44.6636 57.6197C44.9671 56.9416 44.9886 56.1859 44.7239 55.4919ZM43.2371 56.9803C43.1039 57.2775 42.8633 57.505 42.5589 57.6206L40.7689 58.3025C40.4646 58.4184 40.1336 58.4087 39.8367 58.2759C39.5396 58.1428 39.3121 57.9019 39.1961 57.5978L25.8783 22.6434C25.7624 22.339 25.7721 22.0081 25.9049 21.7109C26.038 21.4137 26.2789 21.1865 26.583 21.0706L28.3727 20.3887C28.5149 20.3344 28.6611 20.3087 28.8052 20.3087C29.2964 20.3087 29.7605 20.6081 29.9455 21.0934L43.2639 56.0478C43.3799 56.3525 43.3705 56.6834 43.2371 56.9803Z" fill="#212643"/>
<path d="M38.5769 56.3661C36.4203 54.6242 30.4888 50.8239 22.011 53.148C21.2085 53.367 20.3869 52.963 20.0985 52.2067L15.2103 39.3777C14.9222 38.6211 15.2666 37.772 16.0113 37.4023C23.8869 33.4945 25.7853 26.7102 26.236 23.9745C26.306 23.5489 26.0178 23.147 25.5919 23.0767C25.1656 23.0073 24.7641 23.2952 24.6941 23.7208C24.2828 26.2189 22.5453 32.4164 15.3166 36.003C13.8472 36.732 13.1741 38.422 13.75 39.9342L18.6381 52.7633C19.2141 54.2755 20.8428 55.0883 22.4235 54.6552C30.205 52.5227 35.6256 55.9914 37.5947 57.582C37.7391 57.6989 37.9128 57.7555 38.085 57.7555C38.3128 57.7555 38.5391 57.6561 38.6931 57.4652C38.9647 57.1289 38.9125 56.637 38.5769 56.3661Z" fill="#212643"/>
<path d="M19.6047 51.7429C19.4509 51.3394 18.9997 51.1369 18.5965 51.291L8.98905 54.9516C6.16811 56.0266 2.99842 54.6057 1.92342 51.7847C0.848733 48.9635 2.26905 45.7938 5.0903 44.7188L14.82 41.0116C15.2231 40.8582 15.4256 40.4066 15.2719 40.0035C15.1181 39.6001 14.6662 39.3976 14.2637 39.5516L4.53405 43.2588C0.907796 44.6407 -0.918142 48.7151 0.463421 52.3413C1.53186 55.1457 4.21092 56.8735 7.04748 56.8735C7.87873 56.8735 8.72342 56.7251 9.54529 56.4119L19.1528 52.7513C19.5562 52.5976 19.7584 52.146 19.6047 51.7429Z" fill="#212643"/>
<path d="M22.1482 64.8219L14.5179 53.8091C14.2719 53.4544 13.7854 53.366 13.4307 53.6119C13.076 53.8579 12.9879 54.3444 13.2335 54.6991L20.8638 65.7119C21.7704 67.0204 21.4432 68.8225 20.1348 69.7288C19.501 70.1682 18.7335 70.3338 17.9754 70.1963C17.2166 70.0585 16.5569 69.6338 16.1182 68.9997L6.90788 55.7066C6.66194 55.3519 6.17506 55.2635 5.82069 55.5094C5.466 55.7554 5.37788 56.2419 5.6235 56.5966L14.8338 69.8897C15.5107 70.8666 16.5273 71.5216 17.6966 71.7335C17.9648 71.7822 18.2335 71.8063 18.5004 71.8063C19.3973 71.8063 20.2719 71.5347 21.0248 71.0129C23.041 69.6157 23.5451 66.8385 22.1482 64.8219Z" fill="#212643"/>
<path d="M47.6745 27.1211C46.0211 27.1211 44.6758 28.4661 44.6758 30.1195C44.6758 31.773 46.0211 33.1183 47.6745 33.1183C49.328 33.1183 50.673 31.773 50.673 30.1195C50.673 28.4661 49.328 27.1211 47.6745 27.1211ZM47.6745 31.5558C46.8827 31.5558 46.2383 30.9114 46.2383 30.1195C46.2383 29.3277 46.8827 28.6836 47.6745 28.6836C48.4661 28.6836 49.1105 29.328 49.1105 30.1195C49.1102 30.9114 48.4661 31.5558 47.6745 31.5558Z" fill="#212643"/>
<path d="M48.6452 32.1094H46.7052C44.4405 32.1094 42.5977 33.9519 42.5977 36.2166V36.4438C42.5977 36.8753 42.9473 37.225 43.3789 37.225C43.8105 37.225 44.1602 36.8753 44.1602 36.4438V36.2166C44.1602 34.8134 45.3017 33.6719 46.7052 33.6719H48.6452C50.0483 33.6719 51.1902 34.8134 51.1902 36.2166V36.4653C51.1902 36.8969 51.5398 37.2466 51.9714 37.2466C52.403 37.2466 52.7527 36.8969 52.7527 36.4653V36.2166C52.7527 33.9519 50.9098 32.1094 48.6452 32.1094Z" fill="#212643"/>
<path d="M63.6993 41.6797C61.9212 41.6797 60.4746 43.1263 60.4746 44.9044C60.4746 46.6825 61.9212 48.1291 63.6993 48.1291C65.4774 48.1291 66.924 46.6825 66.924 44.9044C66.924 43.1263 65.4774 41.6797 63.6993 41.6797ZM63.6993 46.5669C62.7827 46.5669 62.0371 45.8213 62.0371 44.9047C62.0371 43.9881 62.783 43.2425 63.6993 43.2425C64.6155 43.2425 65.3615 43.9881 65.3615 44.9047C65.3615 45.8213 64.6155 46.5669 63.6993 46.5669Z" fill="#212643"/>
<path d="M64.7683 47.1758H62.6302C60.1783 47.1758 58.1836 49.1705 58.1836 51.6223V51.8161C58.1836 52.2477 58.5333 52.5973 58.9648 52.5973C59.3964 52.5973 59.7461 52.2477 59.7461 51.8161V51.6223C59.7461 50.032 61.0398 48.7383 62.6302 48.7383H64.7683C66.3586 48.7383 67.6523 50.032 67.6523 51.6223V51.8552C67.6523 52.2867 68.002 52.6364 68.4336 52.6364C68.8652 52.6364 69.2148 52.2867 69.2148 51.8552V51.6223C69.2148 49.1708 67.2198 47.1758 64.7683 47.1758Z" fill="#212643"/>
<path d="M67.7472 11.9414C65.8144 11.9414 64.2422 13.5136 64.2422 15.4464C64.2422 17.3792 65.8144 18.9514 67.7472 18.9514C69.68 18.9514 71.2522 17.3792 71.2522 15.4464C71.2522 13.5136 69.68 11.9414 67.7472 11.9414ZM67.7472 17.3886C66.6759 17.3886 65.8047 16.517 65.8047 15.4461C65.8047 14.3752 66.6759 13.5036 67.7472 13.5036C68.8184 13.5036 69.6897 14.3752 69.6897 15.4461C69.6897 16.517 68.8184 17.3886 67.7472 17.3886Z" fill="#212643"/>
<path d="M68.9375 18.0703H66.5544C63.8706 18.0703 61.6875 20.2534 61.6875 22.9372V23.2319C61.6875 23.6634 62.0372 24.0131 62.4688 24.0131C62.9003 24.0131 63.25 23.6634 63.25 23.2319V22.9372C63.25 21.115 64.7322 19.6328 66.5544 19.6328H68.9375C70.7597 19.6328 72.2419 21.115 72.2419 22.9372V23.2187C72.2419 23.6503 72.5916 24 73.0231 24C73.4547 24 73.8044 23.6503 73.8044 23.2187V22.9372C73.8044 20.2537 71.6209 18.0703 68.9375 18.0703Z" fill="#212643"/>
</svg>
