<svg width="80" height="80" viewBox="0 0 80 80" fill="none" xmlns="http://www.w3.org/2000/svg">
<g clip-path="url(#clip0_19010_842)">
<path d="M78.5124 75.0973L67.2627 63.8477C66.7805 64.4767 66.184 65.1567 65.6712 65.6692C65.158 66.1823 64.4755 66.7811 63.8496 67.2608L75.0993 78.5105C76.0418 79.453 77.5699 79.453 78.5124 78.5105C79.4549 77.568 79.4549 76.0398 78.5124 75.0973Z" fill="#B165FC"/>
<path d="M70.1067 66.6961L66.6934 70.1094L69.6954 73.1115L73.1087 69.6982L70.1067 66.6961Z" fill="#8FF9EC"/>
<path d="M79.0637 74.5466L67.9687 63.4516C67.6637 63.1463 67.1687 63.1463 66.864 63.4516C66.5587 63.7566 66.5587 64.2513 66.864 64.5563L77.959 75.6513C78.5952 76.2879 78.5952 77.3235 77.959 77.9598C77.3224 78.596 76.2871 78.596 75.6505 77.9598L64.568 66.8773C64.263 66.572 63.768 66.572 63.4634 66.8773C63.158 67.1823 63.158 67.677 63.4634 67.982L74.5459 79.0645C75.1687 79.6873 75.9868 79.9988 76.8049 79.9988C77.623 79.9988 78.4412 79.6873 79.064 79.0645C80.3096 77.8191 80.3096 75.7923 79.0637 74.5466Z" fill="#17212E"/>
<path d="M55.6566 70.7959C65.6407 69.1756 72.4208 59.7683 70.8005 49.7842C69.1801 39.8001 59.7728 33.02 49.7887 34.6403C39.8046 36.2607 33.0245 45.6679 34.6448 55.652C36.2652 65.6361 45.6725 72.4163 55.6566 70.7959Z" fill="#DAE6F1"/>
<path d="M52.7207 67.7187C61.005 67.7187 67.7207 61.003 67.7207 52.7187C67.7207 44.4345 61.005 37.7188 52.7207 37.7188C44.4364 37.7188 37.7207 44.4345 37.7207 52.7187C37.7207 61.003 44.4364 67.7187 52.7207 67.7187Z" fill="#70E9F9"/>
<path d="M58.2674 48.3508C57.8443 47.9071 57.1562 47.8661 56.6737 48.2449C55.9109 48.8436 54.5912 49.5836 52.7271 49.5836C50.8584 49.5836 49.5318 48.8399 48.7659 48.2405C48.284 47.8633 47.5971 47.9055 47.1749 48.3486L47.1727 48.3508C46.5793 48.9733 46.248 49.8002 46.248 50.6602V56.0918C46.248 59.6514 49.1605 62.5639 52.7202 62.5639C56.2799 62.5639 59.1924 59.6514 59.1924 56.0918V50.6602C59.1921 49.8002 58.8609 48.9733 58.2674 48.3508Z" fill="#F9D0B4"/>
<path d="M59.6093 51.1562C59.468 51.1562 59.3293 51.1681 59.194 51.1891V56.0887C59.194 56.2347 59.1874 56.3791 59.1777 56.5228C59.3187 56.5456 59.4621 56.5606 59.6093 56.5606C61.1018 56.5606 62.3115 55.3509 62.3115 53.8584C62.3115 52.3663 61.1015 51.1562 59.6093 51.1562Z" fill="#F9D0B4"/>
<path d="M46.2484 56.0888V51.1891C46.1127 51.1681 45.9743 51.1562 45.833 51.1562C44.3405 51.1562 43.1309 52.3659 43.1309 53.8584C43.1309 55.3509 44.3405 56.5606 45.833 56.5606C45.9802 56.5606 46.1237 56.5456 46.2646 56.5228C46.2549 56.3791 46.2484 56.2344 46.2484 56.0888Z" fill="#F9D0B4"/>
<path d="M59.1683 45.6391C58.9514 45.6391 58.7636 45.4719 58.7608 45.2553C58.7111 41.6488 54.593 40.9716 50.4914 41.6797C47.0142 42.28 44.4727 45.2953 44.4727 48.8241V51.53C44.8723 51.2963 45.3364 51.16 45.833 51.16C45.9742 51.16 46.113 51.1719 46.2483 51.1928V50.6606C46.2483 49.8006 46.5792 48.9738 47.173 48.3513L47.1752 48.3491C47.5977 47.9063 48.2842 47.8638 48.7661 48.241C49.532 48.8403 50.8589 49.5841 52.7273 49.5841C54.5914 49.5841 55.9111 48.8441 56.6739 48.2453C57.1564 47.8666 57.8445 47.9075 58.2677 48.3513C58.8611 48.9738 59.1923 49.8006 59.1923 50.6606V51.1928C59.3277 51.1719 59.4664 51.16 59.6077 51.16C60.1102 51.16 60.5792 51.2997 60.982 51.5388V49.3172C60.9823 46.0875 59.8161 45.6391 59.1683 45.6391Z" fill="#9990FE"/>
<path d="M56.9493 64.8866C56.1859 64.51 55.7021 63.7325 55.7021 62.8812V61.8281C54.8084 62.2959 53.7943 62.5625 52.7205 62.5625C51.6468 62.5625 50.6327 62.2959 49.739 61.8281V62.8812C49.739 63.7325 49.2555 64.51 48.4918 64.8866C47.6046 65.3241 46.8127 65.6853 45.7402 65.9969C47.8255 67.0956 50.1996 67.7206 52.7205 67.7206C55.2427 67.7206 57.6177 67.0953 59.7037 65.9956C58.114 65.525 56.9321 64.8781 56.9493 64.8866Z" fill="#F9D0B4"/>
<path d="M50.5702 70.9058C41.4699 69.8405 34.4067 62.108 34.4067 52.7214C34.4067 51.8048 34.4761 50.9045 34.6061 50.0242L30.9789 53.6514C30.6864 53.9439 30.2121 53.9439 29.9196 53.6514L27.618 51.3498C27.3255 51.0573 27.3255 50.583 27.618 50.2905L32.1596 45.7489C31.6442 45.0545 31.3502 44.2023 31.3502 43.3042V41.3711C29.7099 42.2298 27.8489 42.7189 25.878 42.7189C23.9074 42.7189 22.0464 42.2298 20.4058 41.3711V43.3042C20.4058 44.202 20.1114 45.0542 19.5964 45.7486L24.138 50.2902C24.4305 50.5827 24.4305 51.057 24.138 51.3495L21.8364 53.6511C21.5439 53.9436 21.0696 53.9436 20.7771 53.6511L15.7427 48.6167C15.6171 48.4911 15.5486 48.3317 15.5311 48.1677C14.5083 48.5839 13.4092 48.9561 12.063 49.2952L5.63237 50.9136C3.6433 51.4142 2.21049 53.1505 2.09643 55.1983L0.783304 77.8436C0.741742 78.5905 1.33612 79.2192 2.08424 79.2192H49.6711C50.4192 79.2192 51.0139 78.5908 50.9721 77.8436L50.5702 70.9058Z" fill="#6CADEF"/>
<path d="M50.5705 70.905C47.263 70.5178 44.2243 69.2525 41.6965 67.3438H41.5059V79.2188H49.6718C50.4199 79.2188 51.0146 78.5903 50.9727 77.8431L50.5705 70.905Z" fill="#F9D0B4"/>
<path d="M24.1381 50.2889L19.1038 45.2545C18.8113 44.962 18.3369 44.962 18.0444 45.2545L15.7428 47.5561C15.4503 47.8486 15.4503 48.323 15.7428 48.6155L20.7772 53.6498C21.0697 53.9423 21.5441 53.9423 21.8366 53.6498L24.1381 51.3483C24.4306 51.0558 24.4306 50.5814 24.1381 50.2889Z" fill="#6CADEF"/>
<path d="M33.7116 45.2545C33.4191 44.962 32.9447 44.962 32.6522 45.2545L27.6178 50.2889C27.3253 50.5814 27.3253 51.0558 27.6178 51.3483L29.9194 53.6498C30.2119 53.9423 30.6863 53.9423 30.9788 53.6498L34.6059 50.0227C34.7647 48.948 35.0197 47.9052 35.3566 46.8998L33.7116 45.2545Z" fill="#6CADEF"/>
<path d="M1.39205 67.3438L0.783304 77.8431C0.741742 78.59 1.33612 79.2188 2.08424 79.2188H10.2502V67.3438H1.39205Z" fill="#F9D0B4"/>
<path d="M36.0584 16.6338C35.2819 15.8191 34.0191 15.7444 33.1338 16.4391C31.7341 17.5379 29.3119 18.896 25.8909 18.896C22.4616 18.896 20.0266 17.5313 18.6209 16.431C17.7363 15.7388 16.4763 15.8163 15.7009 16.6291L15.6969 16.6335C14.6078 17.7757 14 19.2935 14 20.8716V30.8404C14 37.3732 19.345 42.7182 25.8778 42.7182C32.4106 42.7182 37.7556 37.3732 37.7556 30.8404V20.8719C37.7553 19.2938 37.1475 17.776 36.0584 16.6338Z" fill="#F9D0B4"/>
<path d="M38.5188 21.7891C38.2594 21.7891 38.005 21.8109 37.7566 21.8494V30.8416C37.7566 31.1094 37.7444 31.3747 37.7266 31.6381C37.985 31.6797 38.2484 31.7072 38.5188 31.7072C41.2575 31.7072 43.4778 29.4869 43.4778 26.7481C43.4778 24.0094 41.2575 21.7891 38.5188 21.7891Z" fill="#F9D0B4"/>
<path d="M14.0005 30.8413V21.8494C13.7518 21.8109 13.4977 21.7891 13.2384 21.7891C10.4996 21.7891 8.2793 24.0094 8.2793 26.7481C8.2793 29.4869 10.4996 31.7072 13.2384 31.7072C13.5087 31.7072 13.7718 31.6797 14.0305 31.6381C14.0127 31.3744 14.0005 31.1091 14.0005 30.8413Z" fill="#F9D0B4"/>
<path d="M37.7119 11.6554C37.3141 11.6554 36.9694 11.3486 36.9637 10.9507C36.8725 4.33199 29.3147 3.08887 21.7878 4.38855C15.4063 5.49043 10.7422 11.0245 10.7422 17.5004V22.4664C11.4759 22.0373 12.3272 21.7873 13.2384 21.7873C13.4978 21.7873 13.7519 21.8092 14.0006 21.8476V20.8711C14.0006 19.2929 14.6081 17.7751 15.6975 16.6329L15.7016 16.6286C16.4769 15.8157 17.7369 15.7379 18.6216 16.4304C20.0272 17.5307 22.4622 18.8954 25.8916 18.8954C29.3125 18.8954 31.7347 17.5373 33.1344 16.4386C34.0197 15.7436 35.2825 15.8186 36.0591 16.6332C37.1481 17.7754 37.7559 19.2932 37.7559 20.8714V21.8479C38.0047 21.8095 38.2587 21.7876 38.5181 21.7876C39.4403 21.7876 40.3009 22.0439 41.0406 22.4826V18.4048C41.0409 12.4786 38.9006 11.6554 37.7119 11.6554Z" fill="#465060"/>
<path d="M31.3495 43.3042V41.3711C29.7091 42.2298 27.8482 42.7189 25.8773 42.7189C23.9066 42.7189 22.0457 42.2298 20.4051 41.3711V43.3042C20.4051 44.202 20.1107 45.0542 19.5957 45.7486L24.1373 50.2902C24.2738 50.4267 24.3438 50.603 24.3529 50.7814H27.4013C27.4104 50.6027 27.4807 50.4264 27.617 50.2902L32.1585 45.7486C31.6435 45.0542 31.3495 44.202 31.3495 43.3042Z" fill="#F9D0B4"/>
<path d="M21.5031 23.75H16.4972C15.1238 23.75 14 24.8737 14 26.2472V26.5625C14 29.3125 16.25 31.5625 19 31.5625C21.75 31.5625 24 29.3125 24 26.5625V26.2472C24 24.8737 22.8762 23.75 21.5031 23.75Z" fill="#666685"/>
<path d="M35.2587 23.75H30.253C28.8796 23.75 27.7559 24.8737 27.7559 26.2472V26.5625C27.7559 29.3125 30.0059 31.5625 32.7559 31.5625C35.5059 31.5625 37.7559 29.3125 37.7559 26.5625V26.2472C37.7559 24.8737 36.6321 23.75 35.2587 23.75Z" fill="#666685"/>
<path d="M73.5181 69.2876C73.2131 68.9823 72.7181 68.9823 72.4134 69.2876L69.2778 72.4232C68.9725 72.7282 68.9725 73.2229 69.2778 73.5279C69.4303 73.6804 69.6303 73.7566 69.8303 73.7566C70.0303 73.7566 70.2303 73.6804 70.3828 73.5279L73.5184 70.3923C73.8234 70.0873 73.8234 69.5926 73.5181 69.2876Z" fill="#17212E"/>
<path d="M70.4548 66.3462C70.1498 66.0409 69.6548 66.0409 69.3501 66.3462L66.272 69.4246C65.9666 69.7296 65.9666 70.2243 66.272 70.5293C66.4245 70.6818 66.6245 70.7581 66.8245 70.7581C67.0245 70.7581 67.2245 70.6818 67.377 70.5293L70.4551 67.4509C70.7601 67.1459 70.7601 66.6512 70.4548 66.3462Z" fill="#17212E"/>
<path d="M29.7718 33.3781C29.4412 33.1003 28.9484 33.1443 28.6715 33.475C28.094 34.1634 27.1149 34.5747 26.0521 34.5747C24.989 34.5747 24.0099 34.1637 23.4328 33.475C23.1559 33.1447 22.6634 33.1006 22.3321 33.3781C22.0015 33.6553 21.9581 34.1478 22.2353 34.4787C23.1056 35.5172 24.5324 36.1372 26.0521 36.1372C27.5715 36.1372 28.9984 35.5172 29.8687 34.4787C30.1456 34.1481 30.1024 33.6553 29.7718 33.3781Z" fill="#17212E"/>
<path d="M28.086 26.0734C27.755 25.7959 27.2625 25.8393 26.9856 26.1703C26.7222 26.4843 26.246 26.6796 25.7431 26.6796C25.29 26.6796 24.87 26.5287 24.5907 26.2653C24.2766 25.969 23.7822 25.9837 23.4863 26.2978C23.1903 26.6118 23.2047 27.1062 23.5188 27.4021C24.085 27.9359 24.8956 28.2421 25.7431 28.2421C26.71 28.2421 27.6222 27.8428 28.1828 27.174C28.46 26.8431 28.4169 26.3503 28.086 26.0734Z" fill="#17212E"/>
<path d="M10.25 58.2578C9.81844 58.2578 9.46875 58.6075 9.46875 59.0391V78.9853C9.46875 79.4169 9.81844 79.7666 10.25 79.7666C10.6816 79.7666 11.0312 79.4169 11.0312 78.9853V59.0391C11.0312 58.6075 10.6816 58.2578 10.25 58.2578Z" fill="#17212E"/>
<path d="M4.92969 29.4375C3.96094 29.25 3.17969 28.5 2.99219 27.5312C2.99219 27.5 2.89844 27.5 2.89844 27.5312C2.71094 28.5 1.92969 29.25 0.960938 29.4375C0.929688 29.4375 0.929688 29.5 0.960938 29.5313C1.92969 29.7188 2.71094 30.4688 2.89844 31.4375C2.89844 31.4688 2.99219 31.4688 2.99219 31.4375C3.17969 30.4688 3.96094 29.7188 4.92969 29.5313C4.96094 29.5 4.96094 29.4375 4.92969 29.4375Z" fill="#70E9F9"/>
<path d="M77.4996 45.7812H76.7496V45.0625C76.7496 44.5 76.3121 44.0625 75.7496 44.0625C75.2184 44.0625 74.7496 44.5 74.7496 45.0313V45.7812H74.0309C73.4684 45.7812 73.0309 46.2187 73.0309 46.7812C72.9996 47.3125 73.4371 47.7812 74.0309 47.7812H74.7496V48.5C74.7496 49.0625 75.1871 49.5 75.7496 49.5C76.2809 49.5 76.7496 49.0625 76.7496 48.5313V47.7812H77.4684C78.0309 47.7812 78.4684 47.3437 78.4684 46.7812C78.4684 46.25 78.0309 45.7812 77.4996 45.7812Z" fill="#4797D1"/>
<path d="M71.6563 37.0312C71.0694 37.0312 70.5938 37.5069 70.5938 38.0938C70.5938 38.6806 71.0694 39.1563 71.6563 39.1563C72.2431 39.1563 72.7188 38.6806 72.7188 38.0938C72.7188 37.5069 72.2431 37.0312 71.6563 37.0312Z" fill="#964CF5"/>
<path d="M47.2813 9.375C46.6944 9.375 46.2188 9.85063 46.2188 10.4375C46.2188 11.0244 46.6944 11.5 47.2813 11.5C47.8681 11.5 48.3438 11.0244 48.3438 10.4375C48.3438 9.85063 47.8681 9.375 47.2813 9.375Z" fill="#964CF5"/>
<path d="M44.0312 2.76562C42.625 2.51562 41.5313 1.42188 41.25 0.046875C41.25 -0.015625 41.125 -0.015625 41.125 0.046875C40.8438 1.42188 39.75 2.51562 38.3438 2.76562C38.2813 2.76562 38.2813 2.85938 38.3438 2.89062C39.75 3.14062 40.8438 4.23438 41.125 5.60938C41.125 5.67188 41.25 5.67188 41.25 5.60938C41.5313 4.23438 42.625 3.14062 44.0312 2.89062C44.0937 2.85938 44.0937 2.76562 44.0312 2.76562Z" fill="#B165FC"/>
<path d="M52.7203 33.625C42.1909 33.625 33.625 42.1912 33.625 52.7203C33.625 63.2494 42.1912 71.8156 52.7203 71.8156C63.2494 71.8156 71.8156 63.2494 71.8156 52.7203C71.8156 42.1912 63.2497 33.625 52.7203 33.625ZM52.7203 70.2534C43.0525 70.2534 35.1875 62.3881 35.1875 52.7206C35.1875 43.0531 43.0528 35.1878 52.7203 35.1878C62.3878 35.1878 70.2531 43.0531 70.2531 52.7206C70.2531 62.3881 62.3881 70.2534 52.7203 70.2534Z" fill="#17212E"/>
<path d="M52.7207 36.9375C44.0188 36.9375 36.9395 44.0169 36.9395 52.7187C36.9395 61.4206 44.0188 68.5 52.7207 68.5C61.4226 68.5 68.502 61.4206 68.502 52.7187C68.502 44.0169 61.4226 36.9375 52.7207 36.9375ZM52.7207 66.9375C44.8804 66.9375 38.502 60.5591 38.502 52.7187C38.502 44.8784 44.8804 38.5 52.7207 38.5C60.561 38.5 66.9395 44.8784 66.9395 52.7187C66.9395 60.5591 60.561 66.9375 52.7207 66.9375Z" fill="#17212E"/>
<path d="M58.833 47.8096C58.1321 47.0743 56.9962 46.9964 56.1918 47.6283C55.5105 48.163 54.3565 48.8002 52.7274 48.8002C51.0943 48.8002 49.9337 48.1602 49.2474 47.623C48.444 46.9936 47.3096 47.073 46.6071 47.8096C45.8718 48.5808 45.4668 49.5924 45.4668 50.658V56.0896C45.4668 60.089 48.7205 63.3427 52.7199 63.3427C56.7193 63.3427 59.973 60.089 59.973 56.0896V50.658C59.9737 49.5924 59.5687 48.5805 58.833 47.8096ZM58.4112 56.0899C58.4112 59.228 55.8584 61.7805 52.7205 61.7805C49.5827 61.7805 47.0299 59.2277 47.0299 56.0899V50.6583C47.0299 49.9961 47.2818 49.3674 47.7409 48.8858C47.8177 48.8052 47.9215 48.7639 48.0271 48.7639C48.1168 48.7639 48.208 48.7936 48.2849 48.854C49.1646 49.5424 50.6493 50.363 52.7277 50.363C54.8034 50.363 56.2818 49.5443 57.1568 48.8577C57.3259 48.7255 57.5599 48.7386 57.7027 48.8883C58.1596 49.3674 58.4115 49.9961 58.4115 50.6586L58.4112 56.0899Z" fill="#17212E"/>
<path d="M59.6082 50.375C59.1766 50.375 58.827 50.7247 58.827 51.1562C58.827 51.5878 59.1766 51.9375 59.6082 51.9375C60.6676 51.9375 61.5292 52.7991 61.5292 53.8581C61.5292 54.9175 60.6676 55.7791 59.6082 55.7791C59.5498 55.7791 59.4926 55.7756 59.436 55.7694C59.007 55.725 58.6223 56.035 58.5767 56.4641C58.5313 56.8931 58.8423 57.2778 59.2713 57.3234C59.382 57.335 59.4941 57.3416 59.6079 57.3416C61.5285 57.3416 63.0913 55.7791 63.0913 53.8581C63.0916 51.9375 61.5288 50.375 59.6082 50.375Z" fill="#17212E"/>
<path d="M45.9752 55.7725C45.9287 55.7769 45.8812 55.7791 45.833 55.7791C44.7737 55.7791 43.9121 54.9175 43.9121 53.8581C43.9121 52.7991 44.7737 51.9375 45.833 51.9375C46.2646 51.9375 46.6143 51.5878 46.6143 51.1562C46.6143 50.7247 46.2646 50.375 45.833 50.375C43.9124 50.375 42.3496 51.9375 42.3496 53.8581C42.3496 55.7788 43.9121 57.3416 45.833 57.3416C45.929 57.3416 46.0237 57.3369 46.1174 57.3284C46.5471 57.2894 46.8637 56.9091 46.8243 56.4794C46.7852 56.0497 46.4071 55.7356 45.9752 55.7725Z" fill="#17212E"/>
<path d="M59.5245 44.8853C59.4273 43.7163 58.9295 42.7306 58.072 42.0188C55.9523 40.2588 52.3292 40.5669 50.3583 40.9075C46.4952 41.5744 43.6914 44.9031 43.6914 48.8219V51.3669C43.6914 51.7984 44.0411 52.1481 44.4727 52.1481C44.9042 52.1481 45.2539 51.7984 45.2539 51.3669V48.8219C45.2539 45.6653 47.5123 42.9847 50.6242 42.4472C53.4852 41.9534 55.8958 42.2425 57.0739 43.2209C57.6714 43.7169 57.9673 44.3853 57.9795 45.2634C57.988 45.9003 58.5214 46.4181 59.1683 46.4181C59.8055 46.4181 60.2011 47.5281 60.2011 49.3147V51.2888C60.2011 51.7203 60.5508 52.07 60.9823 52.07C61.4139 52.07 61.7636 51.7203 61.7636 51.2888V49.3147C61.7633 45.8213 60.3958 45.0325 59.5245 44.8853Z" fill="#17212E"/>
<path d="M59.8247 65.2161C58.4403 64.7948 57.3984 64.2408 57.3338 64.2061C57.3213 64.1992 57.3084 64.1923 57.2956 64.1861C56.795 63.9392 56.4844 63.4395 56.4844 62.8814V62.0117C56.4844 61.5802 56.1347 61.2305 55.7031 61.2305C55.2716 61.2305 54.9219 61.5802 54.9219 62.0117V62.8814C54.9219 64.0261 55.5525 65.0527 56.57 65.5702C56.75 65.6811 57.0084 65.797 57.3828 65.9645C57.8328 66.1661 58.5428 66.4592 59.3694 66.7108C59.4453 66.7339 59.5219 66.7448 59.5972 66.7448C59.9319 66.7448 60.2419 66.528 60.3444 66.1911C60.47 65.7783 60.2372 65.3417 59.8247 65.2161Z" fill="#17212E"/>
<path d="M49.7396 61.2188C49.308 61.2188 48.9583 61.5684 48.9583 62V62.8797C48.9583 63.4378 48.6474 63.9375 48.1471 64.1844C47.2424 64.6303 46.5396 64.9419 45.6246 65.215C45.2111 65.3384 44.9758 65.7737 45.0992 66.1869C45.2005 66.5259 45.5111 66.745 45.8477 66.745C45.9217 66.745 45.9971 66.7344 46.0714 66.7122C47.1977 66.3759 48.0558 65.9712 48.8383 65.5856C49.8761 65.0741 50.5211 64.0369 50.5211 62.8797V62C50.5208 61.5684 50.1708 61.2188 49.7396 61.2188Z" fill="#17212E"/>
<path d="M20.4063 40.6953C19.9747 40.6953 19.625 41.045 19.625 41.4766V43.3025C19.625 43.9647 19.4288 44.6059 19.0572 45.1575C18.8163 45.5153 18.9107 46.0009 19.2685 46.2419C19.4022 46.3322 19.5541 46.3753 19.7044 46.3753C19.9557 46.3753 20.2022 46.2544 20.3532 46.0303C20.8991 45.22 21.1878 44.2766 21.1878 43.3025V41.4766C21.1875 41.045 20.8378 40.6953 20.4063 40.6953Z" fill="#17212E"/>
<path d="M32.7137 45.1805C32.3324 44.6242 32.1309 43.9755 32.1309 43.3036V41.5039C32.1309 41.0723 31.7812 40.7227 31.3496 40.7227C30.918 40.7227 30.5684 41.0723 30.5684 41.5039V43.3036C30.5684 44.2923 30.8646 45.2467 31.4249 46.0639C31.5762 46.2848 31.8212 46.4033 32.0699 46.4033C32.2221 46.4033 32.3759 46.3589 32.5109 46.2664C32.8668 46.0227 32.9577 45.5364 32.7137 45.1805Z" fill="#17212E"/>
<path d="M51.7523 77.7997L51.3657 71.1313C51.3407 70.7003 50.9645 70.3719 50.5407 70.3966C50.1101 70.4216 49.781 70.7909 49.806 71.2216L50.1926 77.8884C50.2007 78.0331 50.1504 78.1706 50.0507 78.2759C49.9513 78.3813 49.8166 78.4391 49.6716 78.4391H2.08446C1.93946 78.4391 1.80477 78.3809 1.7054 78.2759C1.60571 78.1709 1.5554 78.0331 1.56321 77.8903L2.87665 55.2434C2.97227 53.5272 4.15633 52.0925 5.82321 51.6728L12.2538 50.0544C13.4898 49.7431 14.581 49.3919 15.6885 48.9481C16.0891 48.7878 16.2835 48.3328 16.1232 47.9325C15.9629 47.5322 15.5085 47.3369 15.1076 47.4978C14.0666 47.9147 13.0388 48.2456 11.8723 48.5394L5.44165 50.1578C3.1079 50.7453 1.4504 52.7544 1.31665 55.155L0.00320794 77.8019C-0.0286671 78.3713 0.178208 78.9356 0.56977 79.35C0.96227 79.7637 1.51415 80.0016 2.08446 80.0016H49.6713C50.2416 80.0016 50.7935 79.7638 51.1857 79.3497C51.5776 78.935 51.7841 78.3709 51.7523 77.7997Z" fill="#17212E"/>
<path d="M41.5059 66.625C41.0743 66.625 40.7246 66.9747 40.7246 67.4062V78.8822C40.7246 79.3138 41.0743 79.6634 41.5059 79.6634C41.9374 79.6634 42.2871 79.3138 42.2871 78.8822V67.4062C42.2871 66.9747 41.9374 66.625 41.5059 66.625Z" fill="#17212E"/>
<path d="M24.6903 49.7356L19.6559 44.7012C19.0594 44.105 18.0887 44.1046 17.4919 44.7012L15.1906 47.0028C14.9016 47.2915 14.7422 47.6759 14.7422 48.085C14.7422 48.4937 14.9013 48.8781 15.1906 49.1668L20.2253 54.2015C20.5234 54.4996 20.9153 54.6487 21.3072 54.6487C21.6991 54.6487 22.0909 54.4996 22.3894 54.2012L24.6906 51.8996C24.9797 51.6109 25.1391 51.2265 25.1391 50.8175C25.1384 50.4087 24.9794 50.0246 24.6903 49.7356ZM21.3069 53.0737L16.3181 48.085L18.5741 45.8287L23.5625 50.8178L21.3069 53.0737Z" fill="#17212E"/>
<path d="M35.9094 46.3462L34.2641 44.7009C33.6675 44.1047 32.6966 44.105 32.1003 44.7013L27.0659 49.7356C26.7766 50.0247 26.6172 50.4091 26.6172 50.8178C26.6172 51.2269 26.7766 51.6113 27.0656 51.8997L29.3675 54.2016C29.6656 54.4997 30.0575 54.6488 30.4494 54.6488C30.8412 54.6488 31.2331 54.4997 31.5312 54.2012L35.1584 50.5741C35.2772 50.4556 35.3544 50.3019 35.3791 50.1359C35.5272 49.1337 35.7687 48.1281 36.0975 47.1472C36.1916 46.8659 36.1187 46.5556 35.9094 46.3462ZM33.8734 49.6497L30.4494 53.0737L28.1934 50.8175L33.1822 45.8284L34.4672 47.1134C34.2103 47.9497 34.0109 48.8 33.8734 49.6497Z" fill="#17212E"/>
<path d="M9.97047 66.5625H1.66016C1.22859 66.5625 0.878906 66.9122 0.878906 67.3438C0.878906 67.7753 1.22859 68.125 1.66016 68.125H9.97047C10.402 68.125 10.7517 67.7753 10.7517 67.3438C10.7517 66.9122 10.402 66.5625 9.97047 66.5625Z" fill="#17212E"/>
<path d="M36.6241 16.0962C35.5706 14.9912 33.8628 14.8753 32.6516 15.8262C31.3203 16.8709 29.0669 18.1165 25.8909 18.1165C22.7081 18.1165 20.4425 16.8665 19.1025 15.8178C17.8925 14.8712 16.1872 14.989 15.1316 16.0965C13.8981 17.3899 13.2188 19.0865 13.2188 20.874V30.8418C13.2188 37.8218 18.8975 43.5009 25.8778 43.5009C32.8581 43.5009 38.5369 37.8221 38.5369 30.8418V20.8737C38.5369 19.0862 37.8575 17.3896 36.6241 16.0962ZM36.9744 30.8418C36.9744 36.9606 31.9966 41.9384 25.8778 41.9384C19.7591 41.9384 14.7812 36.9606 14.7812 30.8418V20.8737C14.7812 19.4899 15.3072 18.1762 16.2662 17.1703C16.5356 16.8878 16.8975 16.7437 17.2638 16.7437C17.5697 16.7437 17.8784 16.844 18.1394 17.0484C19.6728 18.2487 22.2628 19.6793 25.8909 19.6793C29.5134 19.6793 32.0916 18.2528 33.6166 17.0556C34.1912 16.6046 34.9981 16.6556 35.4934 17.1746C36.4484 18.1762 36.9744 19.4899 36.9744 20.8737V30.8418Z" fill="#17212E"/>
<path d="M37.8941 21.0439C37.4653 21.0917 37.1563 21.4782 37.2041 21.907C37.2519 22.3357 37.6353 22.6435 38.0672 22.597C38.2194 22.5798 38.3713 22.5714 38.5185 22.5714C40.8222 22.5714 42.6963 24.4454 42.6963 26.7492C42.6963 29.0529 40.8219 30.927 38.5185 30.927C38.3791 30.927 38.2353 30.9179 38.0782 30.8998C37.6516 30.8485 37.2616 31.1564 37.2113 31.5848C37.161 32.0132 37.4675 32.4014 37.8963 32.4517C38.1141 32.4773 38.3178 32.4898 38.5185 32.4898C41.6838 32.4898 44.2588 29.9148 44.2588 26.7495C44.2588 23.3792 41.341 20.661 37.8941 21.0439Z" fill="#17212E"/>
<path d="M13.2384 22.5703C13.3887 22.5703 13.5443 22.5794 13.7005 22.5972C14.1299 22.6469 14.5165 22.3378 14.5652 21.9094C14.614 21.4806 14.3062 21.0934 13.8774 21.0447C13.6624 21.02 13.4474 21.0078 13.2384 21.0078C10.073 21.0078 7.49805 23.5828 7.49805 26.7481C7.49805 29.9134 10.073 32.4884 13.2384 32.4884C13.434 32.4884 13.6318 32.4766 13.843 32.4525C14.2718 32.4034 14.5796 32.0163 14.5305 31.5875C14.4815 31.1584 14.0924 30.8516 13.6655 30.9C13.5137 30.9175 13.374 30.9259 13.238 30.9259C10.9343 30.9259 9.06023 29.0516 9.06023 26.7481C9.06023 24.4447 10.9349 22.5703 13.2384 22.5703Z" fill="#17212E"/>
<path d="M37.7437 10.875C37.6975 8.63782 36.87 6.83594 35.2831 5.51813C32.5891 3.28094 27.6216 2.58907 21.655 3.61969C14.8791 4.78969 9.96094 10.6278 9.96094 17.5013V22.275C9.96094 22.7066 10.3106 23.0563 10.7422 23.0563C11.1738 23.0563 11.5234 22.7066 11.5234 22.275V17.5013C11.5234 11.3903 15.8962 6.19969 21.9206 5.15938C27.4362 4.2075 31.9434 4.77563 34.2847 6.72032C35.5194 7.74563 36.1578 9.17282 36.1822 10.9625C36.1934 11.7759 36.8794 12.4375 37.7116 12.4375C39.3309 12.4375 40.2594 14.6128 40.2594 18.4059V22.295C40.2594 22.7266 40.6091 23.0763 41.0406 23.0763C41.4722 23.0763 41.8219 22.7266 41.8219 22.295V18.4056C41.8222 11.8991 39.2825 10.8888 37.7437 10.875Z" fill="#17212E"/>
<path d="M27.1386 50H24.5898C24.1583 50 23.8086 50.3497 23.8086 50.7812C23.8086 51.2128 24.1583 51.5625 24.5898 51.5625H27.1386C27.5702 51.5625 27.9198 51.2128 27.9198 50.7812C27.9198 50.3497 27.5702 50 27.1386 50Z" fill="#17212E"/>
<path d="M21.5031 22.9688H16.4972C14.6894 22.9688 13.2188 24.4394 13.2188 26.2472V26.5625C13.2188 29.7503 15.8122 32.3438 19 32.3438C22.1878 32.3438 24.7813 29.7503 24.7813 26.5625V26.2472C24.7813 24.4394 23.3106 22.9688 21.5031 22.9688ZM23.2188 26.5625C23.2188 28.8888 21.3263 30.7812 19 30.7812C16.6738 30.7812 14.7812 28.8888 14.7812 26.5625V26.2472C14.7812 25.3009 15.5509 24.5312 16.4972 24.5312H21.5031C22.4494 24.5312 23.2191 25.3009 23.2191 26.2472L23.2188 26.5625Z" fill="#17212E"/>
<path d="M35.2587 22.9688H30.253C28.4452 22.9688 26.9746 24.4394 26.9746 26.2472V26.5625C26.9746 29.7503 29.568 32.3438 32.7559 32.3438C35.9437 32.3438 38.5371 29.7503 38.5371 26.5625V26.2472C38.5371 24.4394 37.0665 22.9688 35.2587 22.9688ZM36.9746 26.5625C36.9746 28.8888 35.0821 30.7812 32.7559 30.7812C30.4296 30.7812 28.5371 28.8888 28.5371 26.5625V26.2472C28.5371 25.3009 29.3068 24.5312 30.253 24.5312H35.259C36.2052 24.5312 36.9749 25.3009 36.9749 26.2472L36.9746 26.5625Z" fill="#17212E"/>
</g>
<defs>
<clipPath id="clip0_19010_842">
<rect width="80" height="80" fill="white"/>
</clipPath>
</defs>
</svg>
